<svg xmlns="http://www.w3.org/2000/svg" viewBox="0 0 100 100">
    <style>
        path, polygon {
            fill:red;
        }
    </style>
    <path d="M74.324 35.882l-.291-2L80.3 22.84 70.382 2.5l-2 15.688-5.243 5.243H36.862l-5.245-5.243L29.618 2.5 19.7 22.84l6.268 11.042-.292 2-11.38-6.573v15.952l5.759 10.368 2.817-.549-1.56 10.687L43.435 86.12 50 97.5l6.569-11.381 22.119-20.353-1.56-10.687 2.817.549 5.761-10.368V29.309l-11.382 6.573zM21.915 51.633l-4.053-7.295v-8.849l7.259 4.192-1.702 11.657-1.504.295zm52.973 12.786l-21.37 19.66h-7.035l-21.37-19.66L29.5 34.375l7.356-7.377h26.289l7.355 7.377 4.388 30.044zm7.252-20.082l-4.056 7.295-1.501-.295-1.704-11.657 7.261-4.192v8.849z"/>
    <polygon points="49.998,72.612 54.951,68.932 45.05,68.932"/>
    <polygon points="54.265,65.102 57.698,57.74 65.646,57.74 66.624,50.38 55.835,54.402"/>
    <polygon points="44.166,54.402 33.375,50.38 34.354,57.74 42.302,57.74 45.736,65.102"/>
</svg>
